<svg width="140" height="157" viewBox="0 0 140 157" fill="none" xmlns="http://www.w3.org/2000/svg">
<g clip-path="url(#clip0_127_1007)">
<g opacity="0.3">
<path d="M69.996 156.123C60.185 156.123 51.9459 147.891 47.8644 140.839L43.7068 133.643C17.5105 123.006 0.618164 97.9112 0.618164 69.5348C0.618164 31.3481 31.741 0.280762 69.996 0.280762C108.251 0.280762 139.374 31.3481 139.374 69.5348C139.374 97.9112 122.481 123.006 96.2767 133.643L92.1191 140.839C88.0376 147.891 79.7984 156.115 69.996 156.115V156.123ZM69.996 3.65489C33.6085 3.65489 3.99832 33.2123 3.99832 69.5348C3.99832 96.7134 20.2907 120.737 45.5067 130.725C45.8616 130.868 46.1574 131.121 46.3433 131.45L50.7967 139.143C54.7092 145.908 62.1624 152.741 69.996 152.741C77.8295 152.741 85.2827 145.917 89.1953 139.152L93.6486 131.45C93.843 131.121 94.1388 130.868 94.4852 130.725C119.701 120.729 135.994 96.7134 135.994 69.5348C135.994 33.2038 106.383 3.65489 69.996 3.65489Z" fill="#FF9800"/>
</g>
<g opacity="0.5">
<path d="M69.996 146.979C64.0977 146.979 58.7908 141.446 55.7994 136.267L50.0024 126.245C25.9018 117.835 9.77002 95.1444 9.77002 69.5347C9.77847 36.3923 36.7944 9.42456 69.996 9.42456C103.198 9.42456 130.222 36.3923 130.222 69.5431C130.222 95.1612 114.09 117.852 89.9897 126.254L84.1927 136.275C81.2013 141.454 75.8944 146.979 69.996 146.979ZM69.996 13.6422C39.1267 13.6422 14.0037 38.712 14.0037 69.5347C14.0037 93.6091 29.3158 114.891 52.115 122.509C52.6051 122.669 53.0192 123.006 53.2727 123.453L59.4668 134.158C61.9428 138.443 66.1595 142.762 70.0045 142.762C73.8494 142.762 78.0662 138.443 80.5421 134.166L86.7363 123.462C86.9898 123.015 87.4039 122.677 87.894 122.517C110.693 114.9 126.005 93.6091 126.005 69.5431C126.005 38.7205 100.882 13.6422 70.0045 13.6422H69.996Z" fill="#FF9800"/>
</g>
<path d="M118.763 69.2058C118.763 42.3224 96.9359 20.5339 70.0044 20.5339C43.073 20.5339 21.2456 42.3224 21.2456 69.2058C21.2456 92.1583 37.1577 111.382 58.571 116.52L67.4524 131.872C68.5848 133.829 71.4241 133.829 72.5564 131.872L81.4378 116.52C102.851 111.382 118.763 92.1583 118.763 69.2058Z" fill="#FF9800"/>
<path d="M94.198 61.5549C93.1163 55.5405 88.1559 49.8298 81.759 49.4418C76.9084 49.1466 72.2269 51.6687 69.996 56.0129C67.7735 51.6687 63.0836 49.1466 58.233 49.4418C51.8445 49.8298 46.8842 55.5405 45.7941 61.5549C44.9997 65.9582 46.2757 70.4542 48.6503 74.1826C53.8388 82.3312 62.0611 88.5142 69.996 93.7863C77.9225 88.5142 86.1532 82.3312 91.3417 74.1826C93.7163 70.4542 94.9923 65.9582 94.198 61.5549Z" fill="white"/>
</g>
<defs>
<clipPath id="clip0_127_1007">
<rect width="138.764" height="155.843" fill="white" transform="translate(0.618164 0.280762)"/>
</clipPath>
</defs>
</svg>
