<svg width="156" height="156" viewBox="0 0 156 156" fill="none" xmlns="http://www.w3.org/2000/svg">
<path d="M61.75 52L94.25 84.5M94.25 52L61.75 84.5M64.35 124.8L73.84 137.453C75.2513 139.335 75.9569 140.276 76.822 140.612C77.5797 140.907 78.4203 140.907 79.178 140.612C80.0431 140.276 80.7487 139.335 82.16 137.453L91.65 124.8C93.5555 122.259 94.5082 120.989 95.6703 120.019C97.2197 118.726 99.049 117.811 101.013 117.348C102.486 117 104.074 117 107.25 117C116.336 117 120.879 117 124.462 115.516C129.24 113.537 133.037 109.74 135.016 104.962C136.5 101.379 136.5 96.8359 136.5 87.75V50.7C136.5 39.779 136.5 34.3185 134.375 30.1472C132.505 26.478 129.522 23.4949 125.853 21.6254C121.682 19.5 116.221 19.5 105.3 19.5H50.7C39.779 19.5 34.3185 19.5 30.1472 21.6254C26.478 23.4949 23.4949 26.478 21.6254 30.1472C19.5 34.3185 19.5 39.779 19.5 50.7V87.75C19.5 96.8359 19.5 101.379 20.9843 104.962C22.9635 109.74 26.7596 113.537 31.5377 115.516C35.1212 117 39.6641 117 48.75 117C51.9258 117 53.5136 117 54.9868 117.348C56.951 117.811 58.7803 118.726 60.3297 120.019C61.4918 120.989 62.4445 122.259 64.35 124.8Z" stroke="#8E8E8E" stroke-width="6" stroke-linecap="round" stroke-linejoin="round"/>
</svg>
