<svg width="75" height="50" viewBox="0 0 75 50" fill="none" xmlns="http://www.w3.org/2000/svg">
<path d="M41.8449 49.9342C43.8682 49.9342 45.3519 48.3737 45.3519 46.3117V3.76178C45.3519 1.6719 43.8682 0 41.7909 0C40.4151 0 39.4439 0.613031 37.9601 2.06201L26.6836 12.9572C26.5218 13.1244 26.306 13.208 26.0632 13.208H18.4286C14.436 13.208 12.2778 15.493 12.2778 19.812V30.1778C12.2778 34.4969 14.436 36.7819 18.4286 36.7819H26.0632C26.306 36.7819 26.4948 36.8655 26.6836 37.0326L37.9601 48.0115C39.309 49.349 40.4421 49.9342 41.8449 49.9342ZM65.8277 44.8349C67.0686 45.6151 68.5794 45.3364 69.4426 44.0268C72.9497 38.8996 75 32.0169 75 24.9392C75 17.8615 72.9767 10.951 69.4426 5.85166C68.5794 4.542 67.0686 4.23549 65.8277 5.04357C64.5328 5.87953 64.3439 7.55143 65.3151 9.02828C68.1747 13.3752 69.8203 19.0318 69.8203 24.9392C69.8203 30.8187 68.1477 36.4753 65.3151 40.8502C64.3709 42.327 64.5328 43.971 65.8277 44.8349ZM54.9828 37.367C56.1428 38.1473 57.6536 37.8686 58.4899 36.6425C60.675 33.6331 61.9699 29.3698 61.9699 24.9392C61.9699 20.5087 60.675 16.2732 58.4899 13.2359C57.6536 12.0098 56.1428 11.7312 54.9828 12.5393C53.6609 13.431 53.3912 15.075 54.4702 16.6912C55.954 18.8925 56.7903 21.8462 56.7903 24.9392C56.7903 28.0322 55.927 30.9581 54.4702 33.1873C53.4181 34.8034 53.6609 36.4475 54.9828 37.367Z" fill="white"/>
<circle cx="12.1791" cy="36.6689" r="12.1791" fill="#F63D68"/>
<path d="M11.9636 46.2804C17.4317 46.2804 22.0211 41.8534 22.0211 36.5372C22.0211 31.2021 17.4903 26.7939 11.9636 26.7939C6.45635 26.7939 1.9256 31.2021 1.9256 36.5372C1.9256 41.8913 6.45635 46.2804 11.9636 46.2804ZM11.9636 38.1642C11.2019 38.1642 10.6551 37.6534 10.6356 36.9345L10.4598 31.5994C10.4403 30.7291 11.0652 30.1426 11.9636 30.1426C12.8814 30.1426 13.5064 30.7291 13.4868 31.5994L13.3111 36.9345C13.2915 37.6534 12.7447 38.1642 11.9636 38.1642ZM11.9636 42.875C10.9676 42.875 10.1669 42.1183 10.1669 41.1534C10.1669 40.2075 10.9676 39.4507 11.9636 39.4507C12.9791 39.4507 13.7798 40.2264 13.7798 41.1534C13.7602 42.1183 12.9791 42.875 11.9636 42.875Z" fill="white"/>
</svg>
