<svg width="269" height="270" viewBox="0 0 269 270" fill="none" xmlns="http://www.w3.org/2000/svg">
<path opacity="0.4" d="M230.476 135.306C230.476 188.312 187.506 231.282 134.499 231.282C81.493 231.282 38.5229 188.312 38.5229 135.306C38.5229 82.2995 81.493 39.3295 134.499 39.3295C187.506 39.3295 230.476 82.2995 230.476 135.306ZM43.9432 135.306C43.9432 185.319 84.4866 225.862 134.499 225.862C184.512 225.862 225.055 185.319 225.055 135.306C225.055 85.2931 184.512 44.7497 134.499 44.7497C84.4866 44.7497 43.9432 85.2931 43.9432 135.306Z" fill="#F63D68"/>
<path opacity="0.2" d="M247.746 135.306C247.746 197.85 197.044 248.551 134.5 248.551C71.9566 248.551 21.2549 197.85 21.2549 135.306C21.2549 72.7621 71.9566 22.0604 134.5 22.0604C197.044 22.0604 247.746 72.7621 247.746 135.306ZM24.9194 135.306C24.9194 195.826 73.9805 244.887 134.5 244.887C195.02 244.887 244.081 195.826 244.081 135.306C244.081 74.786 195.02 25.725 134.5 25.725C73.9805 25.725 24.9194 74.786 24.9194 135.306Z" fill="#F63D68"/>
<path opacity="0.05" d="M269 135.306C269 209.588 208.782 269.806 134.5 269.806C60.2181 269.806 0.000488281 209.588 0.000488281 135.306C0.000488281 61.0237 60.2181 0.806152 134.5 0.806152C208.782 0.806152 269 61.0237 269 135.306ZM4.35283 135.306C4.35283 207.184 62.6218 265.453 134.5 265.453C206.379 265.453 264.648 207.184 264.648 135.306C264.648 63.4275 206.379 5.15849 134.5 5.15849C62.6218 5.15849 4.35283 63.4275 4.35283 135.306Z" fill="#F63D68"/>
<rect x="53.1362" y="53.9419" width="162.728" height="162.728" rx="81.3641" fill="#F63D68"/>
<path d="M136.835 167.476C139.469 167.476 141.4 165.445 141.4 162.761V107.368C141.4 104.647 139.469 102.471 136.765 102.471C134.974 102.471 133.709 103.269 131.778 105.155L117.098 119.339C116.887 119.557 116.606 119.665 116.29 119.665H106.351C101.153 119.665 98.3438 122.64 98.3438 128.263V141.757C98.3438 147.38 101.153 150.354 106.351 150.354H116.29C116.606 150.354 116.852 150.463 117.098 150.681L131.778 164.973C133.534 166.715 135.009 167.476 136.835 167.476ZM168.056 160.838C169.672 161.854 171.639 161.491 172.762 159.786C177.328 153.111 179.997 144.151 179.997 134.937C179.997 125.723 177.363 116.727 172.762 110.089C171.639 108.384 169.672 107.985 168.056 109.037C166.371 110.125 166.125 112.302 167.389 114.224C171.112 119.883 173.254 127.247 173.254 134.937C173.254 142.592 171.077 149.955 167.389 155.651C166.16 157.573 166.371 159.714 168.056 160.838ZM153.938 151.116C155.448 152.132 157.415 151.769 158.504 150.173C161.348 146.255 163.034 140.705 163.034 134.937C163.034 129.17 161.348 123.656 158.504 119.702C157.415 118.106 155.448 117.743 153.938 118.795C152.217 119.956 151.866 122.096 153.271 124.2C155.203 127.066 156.291 130.911 156.291 134.937C156.291 138.964 155.167 142.773 153.271 145.675C151.901 147.779 152.217 149.919 153.938 151.116Z" fill="white"/>
<circle cx="97.9473" cy="150.036" r="15.855" fill="#F63D68"/>
<path d="M97.9349 162.72C105.053 162.72 111.028 156.957 111.028 150.036C111.028 143.091 105.13 137.352 97.9349 137.352C90.7654 137.352 84.8672 143.091 84.8672 150.036C84.8672 157.006 90.7654 162.72 97.9349 162.72ZM97.9349 152.154C96.9433 152.154 96.2315 151.489 96.2061 150.553L95.9772 143.608C95.9518 142.475 96.7654 141.711 97.9349 141.711C99.1298 141.711 99.9433 142.475 99.9179 143.608L99.6891 150.553C99.6637 151.489 98.9518 152.154 97.9349 152.154ZM97.9349 158.287C96.6383 158.287 95.5959 157.302 95.5959 156.045C95.5959 154.814 96.6383 153.829 97.9349 153.829C99.2569 153.829 100.299 154.839 100.299 156.045C100.274 157.302 99.2569 158.287 97.9349 158.287Z" fill="white"/>
</svg>
