<svg width="78" height="77" viewBox="0 0 78 77" fill="none" xmlns="http://www.w3.org/2000/svg">
<path opacity="0.4" d="M71.6282 38.4999C71.6282 56.5203 57.0198 71.1287 38.9994 71.1287C20.979 71.1287 6.37061 56.5203 6.37061 38.4999C6.37061 20.4795 20.979 5.87109 38.9994 5.87109C57.0198 5.87109 71.6282 20.4795 71.6282 38.4999ZM8.21332 38.4999C8.21332 55.5026 21.9967 69.286 38.9994 69.286C56.0021 69.286 69.7855 55.5026 69.7855 38.4999C69.7855 21.4972 56.0021 7.71381 38.9994 7.71381C21.9967 7.71381 8.21332 21.4972 8.21332 38.4999Z" fill="#8E8E8E"/>
<path opacity="0.2" d="M77.4994 38.5C77.4994 59.7628 60.2625 76.9997 38.9997 76.9997C17.7369 76.9997 0.5 59.7628 0.5 38.5C0.5 17.2372 17.7369 0.000244141 38.9997 0.000244141C60.2625 0.000244141 77.4994 17.2372 77.4994 38.5ZM1.74583 38.5C1.74583 59.0747 18.425 75.7538 38.9997 75.7538C59.5745 75.7538 76.2536 59.0747 76.2536 38.5C76.2536 17.9252 59.5745 1.24607 38.9997 1.24607C18.425 1.24607 1.74583 17.9252 1.74583 38.5Z" fill="#8E8E8E"/>
<rect x="11.3384" y="10.8389" width="55.3222" height="55.3222" rx="27.6611" fill="#8E8E8E"/>
<path d="M39.7937 49.4369C40.6892 49.4369 41.3459 48.7463 41.3459 47.8337V29.002C41.3459 28.0771 40.6892 27.3372 39.7699 27.3372C39.1609 27.3372 38.7311 27.6085 38.0744 28.2498L33.0837 33.0717C33.0121 33.1457 32.9166 33.1827 32.8091 33.1827H29.4302C27.6632 33.1827 26.708 34.194 26.708 36.1055V40.6932C26.708 42.6047 27.6632 43.616 29.4302 43.616H32.8091C32.9166 43.616 33.0001 43.653 33.0837 43.727L38.0744 48.5859C38.6714 49.1779 39.1729 49.4369 39.7937 49.4369ZM50.408 47.1801C50.9572 47.5254 51.6258 47.402 52.0079 46.8224C53.56 44.5532 54.4674 41.5071 54.4674 38.3747C54.4674 35.2423 53.572 32.1838 52.0079 29.927C51.6258 29.3473 50.9572 29.2117 50.408 29.5693C49.8349 29.9393 49.7513 30.6792 50.1811 31.3329C51.4467 33.2567 52.175 35.7602 52.175 38.3747C52.175 40.9768 51.4348 43.4803 50.1811 45.4165C49.7633 46.0701 49.8349 46.7977 50.408 47.1801ZM45.6083 43.875C46.1217 44.2203 46.7903 44.0969 47.1604 43.5543C48.1275 42.2224 48.7006 40.3355 48.7006 38.3747C48.7006 36.4138 48.1275 34.5393 47.1604 33.1951C46.7903 32.6524 46.1217 32.5291 45.6083 32.8868C45.0233 33.2814 44.9039 34.009 45.3814 34.7243C46.0381 35.6986 46.4082 37.0058 46.4082 38.3747C46.4082 39.7436 46.0262 41.0385 45.3814 42.0251C44.9158 42.7404 45.0233 43.468 45.6083 43.875Z" fill="white"/>
<circle cx="26.5728" cy="43.5079" r="5.39018" fill="#8E8E8E"/>
<path d="M26.569 47.8198C28.9891 47.8198 31.0203 45.8605 31.0203 43.5077C31.0203 41.1465 29.015 39.1956 26.569 39.1956C24.1317 39.1956 22.1265 41.1465 22.1265 43.5077C22.1265 45.8773 24.1317 47.8198 26.569 47.8198ZM26.569 44.2278C26.232 44.2278 25.9899 44.0017 25.9813 43.6835L25.9035 41.3223C25.8949 40.9372 26.1715 40.6776 26.569 40.6776C26.9753 40.6776 27.2518 40.9372 27.2432 41.3223L27.1654 43.6835C27.1568 44.0017 26.9148 44.2278 26.569 44.2278ZM26.569 46.3127C26.1282 46.3127 25.7739 45.9778 25.7739 45.5507C25.7739 45.1321 26.1282 44.7972 26.569 44.7972C27.0185 44.7972 27.3729 45.1405 27.3729 45.5507C27.3642 45.9778 27.0185 46.3127 26.569 46.3127Z" fill="white"/>
</svg>
