<svg width="64" height="64" viewBox="0 0 64 64" fill="none" xmlns="http://www.w3.org/2000/svg">
<path d="M36.6505 7.02286L56.7253 20.0714C57.4346 20.5325 57.7893 20.763 58.0463 21.0705C58.2737 21.3428 58.4446 21.6576 58.5489 21.9967C58.6666 22.3797 58.6666 22.8028 58.6666 23.6488V43.2C58.6666 47.6804 58.6666 49.9206 57.7947 51.6319C57.0277 53.1372 55.8039 54.3611 54.2986 55.128C52.5873 56 50.3471 56 45.8666 56H18.1333C13.6529 56 11.4127 56 9.70139 55.128C8.19609 54.3611 6.97225 53.1372 6.20526 51.6319C5.33331 49.9206 5.33331 47.6804 5.33331 43.2V23.6488C5.33331 22.8028 5.33331 22.3797 5.4511 21.9967C5.55537 21.6576 5.72624 21.3428 5.95371 21.0705C6.21068 20.763 6.56535 20.5325 7.2747 20.0714L27.3494 7.02286M36.6505 7.02286C34.9672 5.9287 34.1256 5.38162 33.2187 5.16876C32.4171 4.98061 31.5828 4.98061 30.7812 5.16876C29.8744 5.38162 29.0327 5.9287 27.3494 7.02286M36.6505 7.02286L53.163 17.756C54.9973 18.9482 55.9144 19.5444 56.232 20.3004C56.5096 20.961 56.5096 21.7056 56.232 22.3663C55.9144 23.1223 54.9973 23.7184 53.163 24.9107L36.6505 35.6438C34.9672 36.7379 34.1256 37.285 33.2187 37.4979C32.4171 37.686 31.5828 37.686 30.7812 37.4979C29.8744 37.285 29.0327 36.7379 27.3494 35.6438L10.8369 24.9107C9.00268 23.7184 8.08555 23.1223 7.76791 22.3663C7.49032 21.7056 7.49032 20.961 7.76791 20.3004C8.08555 19.5444 9.00268 18.9482 10.8369 17.756L27.3494 7.02286M57.3333 50.6667L39.6191 34.6667M24.3808 34.6667L6.66665 50.6667" stroke="white" stroke-width="4" stroke-linecap="round" stroke-linejoin="round"/>
</svg>
