<svg width="28" height="28" viewBox="0 0 28 28" fill="none" xmlns="http://www.w3.org/2000/svg">
<path d="M9.91667 14.5833C9.91667 14.5833 11.4479 16.3333 14 16.3333C16.5521 16.3333 18.0833 14.5833 18.0833 14.5833M17.2083 8.75H17.22M10.7917 8.75H10.8033M8.16667 21V23.7248C8.16667 24.3464 8.16667 24.6572 8.2941 24.8169C8.40493 24.9557 8.57298 25.0365 8.75063 25.0363C8.9549 25.0361 9.19762 24.8419 9.68305 24.4536L12.4661 22.2271C13.0346 21.7723 13.3189 21.5449 13.6354 21.3832C13.9162 21.2397 14.2152 21.1349 14.5241 21.0715C14.8723 21 15.2363 21 15.9644 21H18.9C20.8602 21 21.8403 21 22.589 20.6185C23.2475 20.283 23.783 19.7475 24.1185 19.089C24.5 18.3403 24.5 17.3602 24.5 15.4V9.1C24.5 7.13982 24.5 6.15972 24.1185 5.41103C23.783 4.75247 23.2475 4.21703 22.589 3.88148C21.8403 3.5 20.8602 3.5 18.9 3.5H9.1C7.13982 3.5 6.15972 3.5 5.41103 3.88148C4.75247 4.21703 4.21703 4.75247 3.88148 5.41103C3.5 6.15972 3.5 7.13982 3.5 9.1V16.3333C3.5 17.4183 3.5 17.9608 3.61926 18.4059C3.94289 19.6137 4.88631 20.5571 6.09413 20.8807C6.53922 21 7.0817 21 8.16667 21ZM17.7917 8.75C17.7917 9.07217 17.5305 9.33333 17.2083 9.33333C16.8862 9.33333 16.625 9.07217 16.625 8.75C16.625 8.42783 16.8862 8.16667 17.2083 8.16667C17.5305 8.16667 17.7917 8.42783 17.7917 8.75ZM11.375 8.75C11.375 9.07217 11.1138 9.33333 10.7917 9.33333C10.4695 9.33333 10.2083 9.07217 10.2083 8.75C10.2083 8.42783 10.4695 8.16667 10.7917 8.16667C11.1138 8.16667 11.375 8.42783 11.375 8.75Z" stroke="#FF9800" stroke-width="2" stroke-linecap="round" stroke-linejoin="round"/>
</svg>
