<svg width="22" height="23" viewBox="0 0 22 23" fill="none" xmlns="http://www.w3.org/2000/svg">
<circle cx="11" cy="11.7609" r="11" fill="#E3E3E3"/>
<mask id="mask0_413_5122" style="mask-type:alpha" maskUnits="userSpaceOnUse" x="0" y="0" width="22" height="23">
<circle cx="11" cy="11.7609" r="11" fill="#F3F3F3"/>
</mask>
<g mask="url(#mask0_413_5122)">
<path fill-rule="evenodd" clip-rule="evenodd" d="M11.0003 14.6306C13.42 14.6306 15.3816 12.669 15.3816 10.2493C15.3816 7.82961 13.42 5.86804 11.0003 5.86804C8.5806 5.86804 6.61903 7.82961 6.61903 10.2493C6.61903 12.669 8.5806 14.6306 11.0003 14.6306ZM20.2421 20.4259C20.8688 21.9596 19.4783 23.3502 17.8214 23.3502H4.17856C2.52171 23.3502 1.13115 21.9596 1.75784 20.4259C1.81044 20.2971 1.86656 20.1694 1.92617 20.0427C2.41974 18.9941 3.14318 18.0414 4.05519 17.2388C4.96719 16.4362 6.0499 15.7996 7.24149 15.3653C8.43308 14.9309 9.71022 14.7074 11 14.7074C12.2898 14.7074 13.5669 14.9309 14.7585 15.3653C15.9501 15.7996 17.0328 16.4362 17.9448 17.2388C18.8568 18.0414 19.5802 18.9941 20.0738 20.0427C20.1334 20.1694 20.1895 20.2971 20.2421 20.4259Z" fill="#717171"/>
</g>
</svg>
