<svg width="70" height="70" viewBox="0 0 70 70" fill="none" xmlns="http://www.w3.org/2000/svg">
<path d="M35 43.75C25.754 43.75 17.5315 48.2144 12.2967 55.1424C11.17 56.6335 10.6066 57.3791 10.6251 58.3867C10.6393 59.1651 11.1281 60.1472 11.7407 60.6279C12.5335 61.25 13.6321 61.25 15.8294 61.25H54.1706C56.3679 61.25 57.4666 61.25 58.2594 60.6279C58.8719 60.1472 59.3607 59.1651 59.375 58.3867C59.3934 57.3791 58.83 56.6335 57.7034 55.1424C52.4685 48.2143 44.2461 43.75 35 43.75Z" fill="white"/>
<path d="M35 35C42.2488 35 48.125 29.1237 48.125 21.875C48.125 14.6263 42.2488 8.75 35 8.75C27.7513 8.75 21.875 14.6263 21.875 21.875C21.875 29.1237 27.7513 35 35 35Z" fill="white"/>
<path d="M35 43.75C25.754 43.75 17.5315 48.2144 12.2967 55.1424C11.17 56.6335 10.6066 57.3791 10.6251 58.3867C10.6393 59.1651 11.1281 60.1472 11.7407 60.6279C12.5335 61.25 13.6321 61.25 15.8294 61.25H54.1706C56.3679 61.25 57.4666 61.25 58.2594 60.6279C58.8719 60.1472 59.3607 59.1651 59.375 58.3867C59.3934 57.3791 58.83 56.6335 57.7034 55.1424C52.4685 48.2143 44.2461 43.75 35 43.75Z" stroke="white" stroke-width="4" stroke-linecap="round" stroke-linejoin="round"/>
<path d="M35 35C42.2488 35 48.125 29.1237 48.125 21.875C48.125 14.6263 42.2488 8.75 35 8.75C27.7513 8.75 21.875 14.6263 21.875 21.875C21.875 29.1237 27.7513 35 35 35Z" stroke="white" stroke-width="4" stroke-linecap="round" stroke-linejoin="round"/>
</svg>
